<?xml version="1.0" encoding="utf-8"?>
<!-- Generator: Adobe Illustrator 27.0.1, SVG Export Plug-In . SVG Version: 6.00 Build 0)  -->
<svg version="1.1" id="Ebene_1" xmlns="http://www.w3.org/2000/svg" xmlns:xlink="http://www.w3.org/1999/xlink" x="0px" y="0px"
	 viewBox="0 0 513 112" style="enable-background:new 0 0 513 112;" xml:space="preserve">
<style type="text/css">
	.st0{clip-path:url(#SVGID_00000007401565012452692440000015692949446552168109_);fill:none;stroke:#2C6CB8;stroke-miterlimit:10;}
	.st1{fill:#2C6CB8;}
</style>
<g>
	<defs>
		<rect id="SVGID_1_" x="5" y="1.7" width="506" height="106.9"/>
	</defs>
	<clipPath id="SVGID_00000069359159669751891930000017162320166370578074_">
		<use xlink:href="#SVGID_1_"  style="overflow:visible;"/>
	</clipPath>
	
		<path style="clip-path:url(#SVGID_00000069359159669751891930000017162320166370578074_);fill:none;stroke:#2C6CB8;stroke-miterlimit:10;" d="
		M221.9,65.3c-5.9-11-11.5-21.3-17.4-32.2c-6,11.1-11.6,21.5-17.5,32.5L221.9,65.3z"/>
</g>
<g>
	<path class="st1" d="M124,100c-5.9,0-10.8,0-16.3,0c-2.3,0-2.7-1-2.7-3c0-11.7,0-23.4-0.1-35c0-5.9-0.1-11.9-0.2-18.6
		c-8.1,10.8-15.7,20.9-23.3,30.9c-3.3,4.4-6.6,9-9.9,13.5c-2.2,3-5.8,2.9-8-0.1c-8.8-11.8-17.7-23.5-26.5-35.3
		c-2.5-3.3-4.9-6.7-7.6-10.4L30,100c-6.1,0-9,0-14-0.1c-1.9,0-2.3-2.1-2.3-3c-0.2-10.2-0.3-20.4-0.4-30.5
		c-0.1-15.7-0.2-30.5-0.4-46.2c0-2.9,0.3-4.7,4-4.7c2.8,0,5.6,0,8.4,0c4.9,0,6,1.7,7.8,4.1c11.9,15.4,23,29.4,35,44.7
		c0.1,0.2,0.4,0.2,0.9,0.6c2.5-3,5.1-6.1,7.6-9.2c9.8-12.8,19.5-25.8,29.3-38.6c0.7-0.9,2.3-1.6,3.5-1.6c4,0,7.1,0.1,11.3,0
		c2.1,0,2.7,0.5,2.7,2.4c0,8.3,0.1,16.7,0.1,25c0.1,12.9,0.2,25.7,0.3,38.6c0,6,0.1,11.9,0.2,18.2"/>
</g>
<g>
	<path class="st1" d="M221.9,65.1c-5.9-11-11.5-21.3-17.4-32.2c-6,11.1-11.6,21.5-17.5,32.5L221.9,65.1z M263.9,100
		c-3.6,0-15.1,0-20.5,0c-1.2,0-2.8-1-3.5-2.1c-2.6-4.4-5-9-7.4-13.5c-1.1-2.1-2.5-3.1-5.1-3.1c-15.5,0.2-31,0.2-46.5,0.1
		c-2.2,0-3.3,0.9-4.2,2.7c-2.3,4.6-4.7,9.1-7.2,13.6c-0.5,0.9-1.1,2-2.5,2c-5.9,0-18.8,0-18.8,0c1.7-3.3,3.7-7.3,5.5-10.5
		c9.8-17.6,19.7-35.2,29.6-52.8c3.6-6.4,7.3-12.8,11-19.1c0.5-0.9,1.9-1.7,2.9-1.8c5.1-0.2,10.1-0.2,15.2,0.1c1.2,0.1,2.9,1,3.5,2
		c10.5,17.8,20.8,35.6,31.2,53.4C252.7,80.5,258.1,89.9,263.9,100"/>
</g>
<g>
	<path class="st1" d="M329.4,43.7c4.4-4.8,8.5-9.3,12.7-13.9c3.9-4.3,7.8-8.5,11.7-12.8c0.5-0.5,1.1-1.6,3.1-1.6c8,0,22,0,22,0
		C367,27.9,353.6,42,341.6,54.6c15.1,15.1,29.7,29.8,45.2,45.4c0,0-17,0-25.5,0.1c-1.1,0-2.5-0.6-3.3-1.4
		c-7.9-8.2-15.2-16-23.1-24.3c-2-2.1-4-4.2-6-6.2c-8.8,10.4-15.9,18.7-24.7,28.9c-0.7,0.8-2.3,3.1-5.1,3.1c-8.2,0-21.4,0-21.4,0
		c2.6-3.1,5.3-6.5,8-9.5c9.7-10.7,19.4-21.3,29.2-31.9c1.5-1.6,0.9-2.4-0.4-3.7c-12-11.9-23.9-23.9-35.9-35.9
		c-0.7-0.7-2.2-2.2-3.5-3.5c0,0,18,0,24.9,0c2.2,0,3.1,1.1,4,2C312.4,25.9,320.7,34.6,329.4,43.7"/>
</g>
<path class="st1" d="M166.6,29.9c0,1.6-1.3,2.8-2.8,2.8h-12.1c-1.6,0-2.8-1.3-2.8-2.8V18.2c0-1.6,1.3-2.8,2.8-2.8h12.1
	c1.6,0,2.8,1.3,2.8,2.8V29.9z"/>
<path class="st1" d="M259.6,29.9c0,1.6-1.3,2.8-2.8,2.8h-12.1c-1.6,0-2.8-1.3-2.8-2.8V18.2c0-1.6,1.3-2.8,2.8-2.8h12.1
	c1.6,0,2.8,1.3,2.8,2.8V29.9z"/>
<g>
	<path class="st1" d="M447.1,43.7c4.4-4.8,8.5-9.3,12.7-13.9c3.9-4.3,7.8-8.5,11.7-12.8c0.5-0.5,1.1-1.6,3.1-1.6c8,0,22,0,22,0
		c-11.9,12.5-25.3,26.5-37.3,39.1c15.1,15.1,29.7,29.8,45.2,45.4c0,0-17,0-25.5,0.1c-1.1,0-2.5-0.6-3.3-1.4
		c-7.9-8.2-15.2-16-23.1-24.3c-2-2.1-4-4.2-6-6.2c-8.8,10.4-15.9,18.7-24.7,28.9c-0.7,0.8-2.3,3.1-5.1,3.1c-8.2,0-21.4,0-21.4,0
		c2.6-3.1,5.3-6.5,8-9.5c9.7-10.7,19.4-21.3,29.2-31.9c1.5-1.6,0.9-2.4-0.4-3.7c-12-11.9-23.9-23.9-35.9-35.9
		c-0.7-0.7-2.2-2.2-3.5-3.5c0,0,18,0,24.9,0c2.2,0,3.1,1.1,4,2C430.1,25.9,438.4,34.6,447.1,43.7"/>
</g>
</svg>
